<svg width="127" height="32" viewBox="0 0 127 32" fill="none" xmlns="http://www.w3.org/2000/svg">
<g clip-path="url(#clip0_30452_31136)">
<path fill-rule="evenodd" clip-rule="evenodd" d="M27.9766 0.193437L17.3616 11.8518L11.7609 6.4086H3.9584L13.6276 15.9528L13.3281 16.2817L13.3304 16.2842L3.90483 25.5879H11.7073L17.1227 20.3249L27.9225 31.8322C27.6855 31.94 27.4222 32 27.1448 32H1.88167C0.84245 32 0 31.1572 0 30.1176V1.88235C0 0.84276 0.842452 0 1.88167 0H27.1448C27.4434 0 27.7258 0.0695875 27.9766 0.193437Z" fill="#26A887"/>
<path d="M32.9766 25.6856V7.02777H45.516V10.8489H37.3232V14.3539H45.0682V17.9642H37.3232V21.8381H45.9902V25.6856H32.9766Z" fill="#1A202C"/>
<path d="M57.6977 25.6856L54.879 21.6536L51.9812 25.6856H46.976L52.2183 18.8075L47.4765 12.5619H52.5081L54.958 16.0668L57.4343 12.5619H62.3078L57.5924 18.8075L62.782 25.6856H57.6977Z" fill="#1A202C"/>
<path d="M69.0715 8.37177C69.0715 8.70557 69.0012 9.0218 68.8607 9.32047C68.7378 9.60157 68.5622 9.84753 68.3339 10.0584C68.1231 10.2692 67.8597 10.4361 67.5436 10.5591C67.245 10.682 66.9289 10.7435 66.5952 10.7435C65.8927 10.7435 65.3044 10.5151 64.8302 10.0584C64.356 9.584 64.1189 9.02181 64.1189 8.37177C64.1189 8.05553 64.1804 7.75686 64.3033 7.47576C64.4263 7.1771 64.6019 6.92235 64.8302 6.71153C65.0585 6.50071 65.3219 6.3338 65.6205 6.21082C65.9191 6.07028 66.244 6 66.5952 6C66.9289 6 67.245 6.06149 67.5436 6.18447C67.8597 6.30745 68.1231 6.47435 68.3339 6.68518C68.5622 6.896 68.7378 7.15074 68.8607 7.44941C69.0012 7.73051 69.0715 8.03796 69.0715 8.37177ZM64.4351 25.6856V12.5619H68.7554V25.6856H64.4351Z" fill="#1A202C"/>
<path d="M88.9317 25.6856V18.5176C88.9317 18.1487 88.9053 17.7973 88.8527 17.4635C88.8 17.1122 88.7034 16.8135 88.5629 16.5675C88.4224 16.3216 88.2292 16.1283 87.9833 15.9878C87.755 15.8296 87.4477 15.7506 87.0613 15.7506C86.6925 15.7506 86.3676 15.8296 86.0866 15.9878C85.8232 16.1459 85.5949 16.3567 85.4017 16.6202C85.2261 16.8838 85.0943 17.1912 85.0065 17.5426C84.9187 17.8764 84.8748 18.2278 84.8748 18.5967V25.6856H80.5545V18.2014C80.5545 17.446 80.4052 16.8486 80.1067 16.4094C79.8081 15.9702 79.3339 15.7506 78.6841 15.7506C77.9992 15.7506 77.4636 16.0229 77.0772 16.5675C76.7084 17.1122 76.524 17.7798 76.524 18.5704V25.6856H72.1773V12.5619H76.3659V14.3802H76.4186C76.5767 14.0991 76.7698 13.8268 76.9982 13.5633C77.244 13.2998 77.5338 13.0714 77.8675 12.8781C78.2012 12.6673 78.57 12.5004 78.9739 12.3774C79.3954 12.2544 79.852 12.1929 80.3438 12.1929C81.2921 12.1929 82.0912 12.3862 82.741 12.7727C83.4084 13.1592 83.9265 13.7126 84.2953 14.4329C84.7343 13.7478 85.2963 13.2031 85.9812 12.7991C86.6662 12.395 87.5004 12.1929 88.4839 12.1929C89.3795 12.1929 90.1259 12.3598 90.723 12.6936C91.3377 13.0099 91.8295 13.4315 92.1983 13.9586C92.5671 14.4681 92.8305 15.0478 92.9886 15.6979C93.1642 16.3304 93.252 16.954 93.252 17.5689V25.6856H88.9317Z" fill="#1A202C"/>
<path d="M112.398 12.7449C112.398 13.8342 112.196 14.7565 111.792 15.512C111.389 16.2499 110.844 16.8472 110.159 17.304C109.474 17.7608 108.684 18.0946 107.788 18.3054C106.893 18.5162 105.962 18.6216 104.996 18.6216H102.757V25.6579H98.252V7H105.101C106.12 7 107.068 7.10541 107.946 7.31623C108.842 7.50949 109.615 7.83451 110.265 8.29129C110.932 8.73051 111.45 9.31906 111.819 10.0569C112.205 10.7773 112.398 11.6733 112.398 12.7449ZM107.894 12.7713C107.894 12.3321 107.806 11.9719 107.63 11.6908C107.455 11.4097 107.217 11.1901 106.919 11.032C106.62 10.8739 106.278 10.7685 105.892 10.7158C105.523 10.6631 105.136 10.6367 104.732 10.6367H102.757V15.0376H104.653C105.075 15.0376 105.479 15.0025 105.865 14.9322C106.252 14.862 106.594 14.739 106.893 14.5633C107.209 14.3876 107.455 14.1592 107.63 13.8781C107.806 13.5795 107.894 13.2105 107.894 12.7713Z" fill="#26A887"/>
<path d="M122.589 17.5939C122.589 16.9087 122.37 16.3202 121.931 15.8282C121.509 15.3363 120.868 15.0904 120.007 15.0904C119.586 15.0904 119.2 15.1606 118.848 15.3012C118.497 15.4242 118.19 15.5998 117.926 15.8282C117.663 16.0566 117.452 16.3289 117.294 16.6452C117.136 16.9438 117.048 17.2601 117.031 17.5939H122.589ZM126.567 19.2541C126.567 19.4298 126.567 19.6055 126.567 19.7812C126.567 19.9569 126.558 20.1238 126.541 20.2819H117.031C117.066 20.6508 117.171 20.9846 117.347 21.2833C117.54 21.582 117.777 21.8455 118.058 22.0739C118.357 22.2847 118.681 22.4516 119.033 22.5746C119.402 22.6976 119.779 22.7591 120.166 22.7591C120.85 22.7591 121.43 22.6361 121.904 22.3901C122.378 22.1266 122.765 21.7928 123.063 21.3887L126.066 23.2861C125.452 24.1821 124.635 24.8761 123.616 25.368C122.615 25.8424 121.448 26.0795 120.113 26.0795C119.129 26.0795 118.199 25.9302 117.32 25.6315C116.442 25.3153 115.67 24.8673 115.002 24.2875C114.352 23.6902 113.834 22.9611 113.448 22.1002C113.079 21.2394 112.895 20.2555 112.895 19.1487C112.895 18.077 113.079 17.1107 113.448 16.2499C113.817 15.3715 114.317 14.6336 114.95 14.0362C115.582 13.4213 116.328 12.947 117.189 12.6132C118.049 12.2794 118.98 12.1125 119.981 12.1125C120.947 12.1125 121.834 12.2794 122.642 12.6132C123.45 12.9294 124.143 13.395 124.723 14.0099C125.302 14.6248 125.75 15.3715 126.066 16.2499C126.4 17.1283 126.567 18.1297 126.567 19.2541Z" fill="#26A887"/>
</g>
<defs>
<clipPath id="clip0_30452_31136">
<rect width="126.567" height="32" fill="white"/>
</clipPath>
</defs>
</svg>
